<?xml version="1.0" encoding="UTF-8"?>
<svg xmlns="http://www.w3.org/2000/svg" viewBox="0 0 64 64" width="64" height="64">
  <title>STOKVA</title>
  <defs>
    <linearGradient id="bg-fav" x1="0%" y1="0%" x2="100%" y2="100%">
      <stop offset="0%" stop-color="#312e81"/>
      <stop offset="100%" stop-color="#1e1b4b"/>
    </linearGradient>
    <linearGradient id="lf-fav" x1="0%" y1="0%" x2="0%" y2="100%">
      <stop offset="0%" stop-color="#4f46e5"/>
      <stop offset="100%" stop-color="#3730a3"/>
    </linearGradient>
    <linearGradient id="rf-fav" x1="0%" y1="0%" x2="0%" y2="100%">
      <stop offset="0%" stop-color="#6366f1"/>
      <stop offset="100%" stop-color="#4338ca"/>
    </linearGradient>
    <linearGradient id="tf-fav" x1="0%" y1="0%" x2="100%" y2="100%">
      <stop offset="0%" stop-color="#22d3ee"/>
      <stop offset="100%" stop-color="#06b6d4"/>
    </linearGradient>
  </defs>
  <rect width="64" height="64" rx="14" fill="url(#bg-fav)"/>
  <g transform="translate(12, 14)">
    <polygon points="6,16 20,23 20,38 6,31" fill="url(#lf-fav)"/>
    <polygon points="20,23 34,16 34,31 20,38" fill="url(#rf-fav)"/>
    <polygon points="6,16 20,9 34,16 20,23" fill="url(#tf-fav)"/>
    <polygon points="20,14 24.5,18.5 22.5,18.5 22.5,21.5 17.5,21.5 17.5,18.5 15.5,18.5" fill="#ffffff"/>
  </g>
</svg>
